<svg width="250" height="250" xmlns="http://www.w3.org/2000/svg" version="1.1">
 <g>
  <title>Layer 1</title>
  <g id="svg_8">
   <path d="m106.795,18.01768c6.36,-4.05 15.28,-4 21.48,0.36c14.55,9.66 29.61,18.51 44.46,27.69c3.26,1.91 6.79,3.53 9.36,6.41c-2.83,-0.02 -5.65,-0.18 -8.46,-0.46c-1.7,-1.91 -3.37,-3.91 -5.48,-5.4c-9,-6.01 -18.22,-11.68 -27.4,-17.41c-5.4,-2.92 -10.55,-6.71 -16.64,-8.01c-4.29,0.43 -8.66,1.62 -12.28,4.03c-8.26,5.99 -17.82,9.9 -25.94,16.11c-4.65,3.56 -12.5,4.66 -13.56,11.46c-6.6,-0.5 -13.21,-0.14 -19.81,-0.37c0.91,-0.95 1.81,-1.95 2.93,-2.66c17.14,-10.53 34.35,-20.97 51.34,-31.75z" fill="#3bba81" stroke="#d6e0e5" stroke-width="0.25" id="svg_2"/>
   <path d="m228.055,50.65768c3.49,0.37 4.64,4.16 6.69,6.47c5.36,6.17 7.29,14.47 8.02,22.41c0.04,21.37 0,42.74 0.03,64.11c-0.56,8.44 -1.95,17.28 -7.09,24.27c-8.18,12.59 -22.54,18.51 -34.75,26.28c-12.96,8.49 -26.6,15.88 -39.41,24.62c-5.67,3.78 -11.74,6.88 -17.46,10.58c-4.76,3 -10.42,4.06 -15.83,5.3c-9.51,1.1 -19.49,-1.33 -27.58,-6.47c-7.36,-4.28 -14.84,-8.36 -21.96,-13.04c-4.22,-2.99 -9.35,-4.38 -13.22,-7.86c-7.9,-5.68 -16.49,-10.31 -24.84,-15.27c-3.08,-2.23 -6.03,-4.68 -9.42,-6.46c-7.43,-3.98 -14.49,-8.74 -20.65,-14.51c-1.48,-1.16 -1.95,-3 -2.44,-4.71c4.5,4.49 9.73,8.09 15.32,11.07c21.7,13.71 43.64,27.04 65.39,40.68c4.34,2.68 8.48,5.81 13.31,7.61c10.95,4.42 23.88,3.64 34.22,-2.05c26.99,-16.74 54.03,-33.39 81.04,-50.07c8.74,-5.73 15.29,-14.81 17.51,-25.06c1.59,-6.25 0.93,-12.72 1.01,-19.09c0.09,-15 -0.04,-29.99 0.03,-44.99c0.07,-7.23 0.43,-14.68 -1.99,-21.61c-1.34,-4.36 -3.91,-8.17 -5.93,-12.21z" fill="#3bba81" stroke="#d6e0e5" stroke-width="0.25" id="svg_3"/>
   <path d="m192.825,67.05768c3.73,-3.64 7.46,-7.33 11.65,-10.46c1.55,-1.51 4.62,-0.47 4.4,1.85c0.65,3.16 -2.19,5.16 -3.94,7.3c1.15,3.82 3.14,7.69 2.3,11.78c-0.95,5.02 -0.02,10.11 -0.47,15.16c-0.52,-5.65 0.17,-11.62 -2.25,-16.91c-5.14,-0.63 -7.14,4.77 -10.33,7.65c-4.74,4.28 -9.66,8.42 -13.85,13.27c-3.98,4.62 -9.48,7.93 -12.77,13.09c-0.28,3.23 2.08,6.02 4.1,8.3c9.61,9.21 18.56,19.09 28.44,28.02c1.65,-0.83 3.29,-1.66 4.96,-2.43c0.15,3.64 -2.48,6.18 -4.85,8.54c-15.61,-15.59 -31.33,-31.09 -46.9,-46.73c13.06,-12.92 26.45,-25.51 39.51,-38.43z" fill="#3bba81" stroke="#d6e0e5" stroke-width="0.25" id="svg_4"/>
   <path d="m100.385,67.59768c3.32,-0.02 4.92,2.99 6.79,5.19c2.4,3.2 5.81,5.6 7.64,9.23c2.47,4.54 3.69,10.11 8.25,13.16c-1.95,4.1 -5.71,6.84 -8.47,10.34c13.46,15.69 28.81,29.63 43.19,44.48c1.16,1.2 2.47,2.58 4.32,2.29c12.44,-0.26 24.89,-0.33 37.33,-0.17c-0.48,1.94 -2.38,2.81 -3.89,3.82c-4.87,2.84 -9.95,5.28 -14.93,7.91c-1.67,1.09 -2.82,-1.01 -3.97,-1.85c-2.42,-2.52 -6.33,-1.54 -9.33,-2.8c-5.74,-2.38 -10.99,-6.01 -15.01,-10.76c-5.42,-5.25 -10.73,-10.61 -16.1,-15.93c-3.01,-3.01 -6.74,-5.16 -9.8,-8.12c-1.61,-1.56 -3.33,-3.12 -5.59,-3.59c-3.49,6.77 -6.94,13.59 -11.2,19.91c-2.7,4.09 -6.99,6.6 -10.73,9.6c-10.47,8.57 -24.77,10.67 -37.89,9.5c-1.47,0.36 -2.85,1.02 -4.26,1.56c2.68,2.18 5.2,4.57 7.25,7.36c-7.96,-1.97 -13.9,-8.47 -21.64,-10.82c-3.33,1.15 -6.75,0.47 -10.16,0.22c-5.66,0.71 -11.33,-0.3 -17.01,-0.07c-3.47,0.41 -6.43,-2.11 -7.97,-5c3,-0.46 6.01,-0.86 9.05,-0.87c15.68,0.1 31.35,-0.22 47.03,-0.17c12.98,0.25 26.17,-4.78 35.1,-14.31c9.87,-9.25 14.61,-22.92 14.84,-36.23c-0.46,-7.72 -2.21,-15.42 -5.6,-22.38c-1.97,-4.11 -4.91,-7.61 -7.24,-11.5z" fill="#3bba81" stroke="#d6e0e5" stroke-width="0.25" id="svg_5"/>
   <path d="m27.695,77.78768c10.5,-0.64 21.05,0.03 31.57,-0.28c8.07,-0.35 16.23,3.44 20.79,10.17c4.11,5.72 4.42,13.24 2.71,19.88c-0.03,-2.69 0.22,-5.41 -0.22,-8.07c-1.57,-2.78 -3.56,-5.34 -5.82,-7.58c-3.72,-2.36 -8.01,-4.28 -12.51,-4.08c-6.66,0.06 -13.33,0 -19.99,0.01c-2.66,-0.35 -5.51,1.92 -5.56,4.63c0.03,5.07 -1.42,10.03 -1.07,15.12c0.19,3.63 -0.2,7.24 -0.52,10.84c0.44,1.77 1.64,3.23 2.59,4.76c1.69,0.24 3.96,-0.82 5.25,0.6c-0.08,1.98 -2.59,0.24 -3.69,0.38c-4.41,-0.36 -8.81,0.89 -13.23,1.01c-0.73,-15.76 -0.09,-31.59 -0.3,-47.39z" fill="#3bba81" stroke="#d6e0e5" stroke-width="0.25" id="svg_6"/>
  </g>
 </g>

</svg>